<svg version="1.1" id="Layer_1" xmlns="http://www.w3.org/2000/svg" xmlns:xlink="http://www.w3.org/1999/xlink" x="0px" y="0px"
	 width="100%" viewBox="0 0 324 356" enable-background="new 0 0 324 356" xml:space="preserve">
<path fill="#010101" opacity="1.000000" stroke="none" 
	d="
M1.000000,134.000000 
	C1.000000,89.333344 1.000000,45.166683 1.000000,1.000018 
	C108.999969,1.000012 216.999939,1.000012 324.999939,1.000006 
	C324.999939,119.666618 324.999939,238.333237 324.999969,356.999878 
	C217.000061,356.999939 109.000137,356.999939 1.000102,356.999969 
	C1.000000,282.833344 1.000000,208.666672 1.000000,134.000000 
M122.379257,330.017029 
	C130.922470,334.811859 139.299637,339.943665 148.074982,344.267334 
	C152.866119,346.628021 158.443665,349.188416 163.464264,348.829407 
	C169.628662,348.388672 176.054199,345.832855 181.550262,342.740173 
	C219.743546,321.248505 257.757050,299.436188 295.755585,277.600342 
	C308.040039,270.541107 314.060272,259.701447 314.050293,245.479950 
	C314.019989,202.321625 314.007202,159.163208 314.057556,116.004906 
	C314.074127,101.805542 308.191986,90.939346 295.897675,83.875725 
	C257.823090,62.000217 219.683319,40.237988 181.538910,18.484283 
	C169.030746,11.350899 156.582184,11.744967 144.116852,18.892845 
	C106.784073,40.300236 69.432358,61.675247 32.009010,82.923721 
	C18.770617,90.440308 12.325634,101.495888 12.371914,116.740768 
	C12.500401,159.065552 12.571547,201.391861 12.337414,243.715744 
	C12.248248,259.834320 19.072346,271.195862 33.011189,279.051025 
	C62.674095,295.767426 92.156441,312.804230 122.379257,330.017029 
z"/>
<path fill="#EAEAEA" opacity="1.000000" stroke="none" 
	d="
M122.046021,329.863373 
	C92.156441,312.804230 62.674095,295.767426 33.011189,279.051025 
	C19.072346,271.195862 12.248248,259.834320 12.337414,243.715744 
	C12.571547,201.391861 12.500401,159.065552 12.371914,116.740768 
	C12.325634,101.495888 18.770617,90.440308 32.009010,82.923721 
	C69.432358,61.675247 106.784073,40.300236 144.116852,18.892845 
	C156.582184,11.744967 169.030746,11.350899 181.538910,18.484283 
	C219.683319,40.237988 257.823090,62.000217 295.897675,83.875725 
	C308.191986,90.939346 314.074127,101.805542 314.057556,116.004906 
	C314.007202,159.163208 314.019989,202.321625 314.050293,245.479950 
	C314.060272,259.701447 308.040039,270.541107 295.755585,277.600342 
	C257.757050,299.436188 219.743546,321.248505 181.550262,342.740173 
	C176.054199,345.832855 169.628662,348.388672 163.464264,348.829407 
	C158.443665,349.188416 152.866119,346.628021 148.074982,344.267334 
	C139.299637,339.943665 130.922470,334.811859 122.046021,329.863373 
M302.761932,102.191444 
	C258.191681,128.001144 213.641769,153.846161 169.005676,179.541504 
	C166.012054,181.264832 164.951187,183.048248 164.959122,186.487610 
	C165.076843,237.473434 165.040344,288.459625 165.040344,339.445709 
	C165.040344,340.925812 165.040344,342.405914 165.040344,345.411285 
	C170.833893,343.076538 176.115143,341.600464 180.747650,338.978302 
	C218.195663,317.781189 255.493912,296.319702 292.901398,275.050598 
	C304.726990,268.326813 310.444366,258.334564 310.431091,244.807373 
	C310.389130,201.985764 310.508850,159.163620 310.298615,116.342987 
	C310.271942,110.911415 308.655334,105.487640 307.676117,99.448303 
	C305.429535,100.744568 304.429016,101.321846 302.761932,102.191444 
M161.326126,334.474915 
	C161.326111,285.342072 161.284210,236.209137 161.409073,187.076630 
	C161.418610,183.324097 160.434113,181.202744 157.033600,179.255127 
	C120.431862,158.292068 83.946327,137.126144 47.429752,116.014450 
	C38.265163,110.716026 29.103315,105.412849 18.714170,99.402588 
	C17.721521,105.448792 16.173923,110.567505 16.150866,115.693092 
	C15.956070,158.995728 16.051195,202.299622 16.032618,245.603134 
	C16.027153,258.344177 21.431299,268.041809 32.458035,274.365540 
	C70.819267,296.365387 109.204338,318.324432 147.683716,340.116455 
	C151.577744,342.321747 156.170517,343.293243 161.326141,345.158203 
	C161.326141,341.042358 161.326141,338.254395 161.326126,334.474915 
M233.827469,52.572395 
	C215.802139,42.289116 197.764114,32.028019 179.756241,21.714270 
	C168.877182,15.483450 157.902573,15.286397 147.048126,21.469282 
	C108.839569,43.233597 70.665123,65.058517 32.576584,87.031792 
	C28.516819,89.373863 25.106014,92.840836 21.112804,96.009193 
	C22.460739,97.092773 22.926052,97.576904 23.484509,97.900078 
	C69.056778,124.272186 114.652496,150.603912 160.174164,177.063019 
	C162.840027,178.612518 164.650772,177.986374 166.927170,176.666870 
	C211.329956,150.929520 255.759720,125.238686 300.176514,99.525452 
	C301.682495,98.653625 303.110992,97.647919 305.591400,96.050369 
	C300.774200,92.389023 296.869446,88.746445 292.371460,86.119537 
	C273.161743,74.900673 253.776840,63.981716 233.827469,52.572395 
z"/>
<path fill="#000000" opacity="1.000000" stroke="none" 
	d="
M303.095215,102.045288 
	C304.429016,101.321846 305.429535,100.744568 307.676117,99.448303 
	C308.655334,105.487640 310.271942,110.911415 310.298615,116.342987 
	C310.508850,159.163620 310.389130,201.985764 310.431091,244.807373 
	C310.444366,258.334564 304.726990,268.326813 292.901398,275.050598 
	C255.493912,296.319702 218.195663,317.781189 180.747650,338.978302 
	C176.115143,341.600464 170.833893,343.076538 165.040344,345.411285 
	C165.040344,342.405914 165.040344,340.925812 165.040344,339.445709 
	C165.040344,288.459625 165.076843,237.473434 164.959122,186.487610 
	C164.951187,183.048248 166.012054,181.264832 169.005676,179.541504 
	C213.641769,153.846161 258.191681,128.001144 303.095215,102.045288 
z"/>
<path fill="#000000" opacity="1.000000" stroke="none" 
	d="
M161.326141,334.970673 
	C161.326141,338.254395 161.326141,341.042358 161.326141,345.158203 
	C156.170517,343.293243 151.577744,342.321747 147.683716,340.116455 
	C109.204338,318.324432 70.819267,296.365387 32.458035,274.365540 
	C21.431299,268.041809 16.027153,258.344177 16.032618,245.603134 
	C16.051195,202.299622 15.956070,158.995728 16.150866,115.693092 
	C16.173923,110.567505 17.721521,105.448792 18.714170,99.402588 
	C29.103315,105.412849 38.265163,110.716026 47.429752,116.014450 
	C83.946327,137.126144 120.431862,158.292068 157.033600,179.255127 
	C160.434113,181.202744 161.418610,183.324097 161.409073,187.076630 
	C161.284210,236.209137 161.326111,285.342072 161.326141,334.970673 
z"/>
<path fill="#010101" opacity="1.000000" stroke="none" 
	d="
M234.141663,52.762871 
	C253.776840,63.981716 273.161743,74.900673 292.371460,86.119537 
	C296.869446,88.746445 300.774200,92.389023 305.591400,96.050369 
	C303.110992,97.647919 301.682495,98.653625 300.176514,99.525452 
	C255.759720,125.238686 211.329956,150.929520 166.927170,176.666870 
	C164.650772,177.986374 162.840027,178.612518 160.174164,177.063019 
	C114.652496,150.603912 69.056778,124.272186 23.484509,97.900078 
	C22.926052,97.576904 22.460739,97.092773 21.112804,96.009193 
	C25.106014,92.840836 28.516819,89.373863 32.576584,87.031792 
	C70.665123,65.058517 108.839569,43.233597 147.048126,21.469282 
	C157.902573,15.286397 168.877182,15.483450 179.756241,21.714270 
	C197.764114,32.028019 215.802139,42.289116 234.141663,52.762871 
z"/>
</svg>